<?xml version="1.0" encoding="utf-8"?>
<!-- Generator: Adobe Illustrator 16.0.0, SVG Export Plug-In . SVG Version: 6.00 Build 0)  -->
<!DOCTYPE svg PUBLIC "-//W3C//DTD SVG 1.1//EN" "http://www.w3.org/Graphics/SVG/1.1/DTD/svg11.dtd">
<svg version="1.1" id="latest-award" xmlns="http://www.w3.org/2000/svg" xmlns:xlink="http://www.w3.org/1999/xlink" x="0px" y="0px" viewBox="0 0 70.258 80.854" enable-background="new 0 0 70.258 80.854" xml:space="preserve">
<g>
	<circle fill="#FF9B41" cx="23.369" cy="4.603" r="4.622"/>
	<circle fill="#5083FC" cx="67.014" cy="68.779" r="3.285"/>
	
		<rect x="2.456" y="66.319" transform="matrix(-0.7071 -0.7071 0.7071 -0.7071 -36.67 129.5059)" fill="#45D7FF" width="12.056" height="12.057"/>
	<path fill="#1E3B88" d="M35.941,62.925"/>
	<path fill="#1E3B88" d="M54.551,35.507l10.752-0.015c1.602-0.003,3.031,1.033,3.527,2.555l0,0c0.496,1.52-0.047,3.203-1.34,4.145
		l0,0l-12.449,8.838"/>
	<path fill="#1E3B88" d="M27.039,51.029l-12.451-8.838l0,0c-1.291-0.941-1.836-2.625-1.34-4.145l0,0
		c0.496-1.521,1.926-2.558,3.527-2.555l10.754,0.015"/>
	<path fill="#1E3B88" d="M38.551,66.701v3.309h-3.217c-0.412,0.013-0.777,0.266-0.938,0.646l-3.023,6.505h-1.176
		c-1.01,0.102-1.746,1.002-1.646,2.013c0.088,0.871,0.775,1.558,1.646,1.646h21.928c1.012-0.102,1.748-1.003,1.646-2.013
		c-0.086-0.87-0.775-1.558-1.646-1.646h-1.176l-3.023-6.512c-0.156-0.381-0.523-0.634-0.938-0.646h-3.217v-3.31"/>
	
		<linearGradient id="latest-awardG" gradientUnits="userSpaceOnUse" x1="62.3828" y1="50.3748" x2="23.6265" y2="27.9988" gradientTransform="matrix(1 0 0 -1 0.1401 79.9077)">
		<stop  offset="0" style="stop-color:#3988FD"/>
		<stop  offset="0.7154" style="stop-color:#1B4DC1"/>
	</linearGradient>
	<path fill="url(#latest-awardG)" d="M26.662,54.12l0.574,2.726c1.291,5.882,7.174,10.188,13.918,10.188
		c6.742,0,12.48-4.305,13.918-10.188l0.572-2.726c3.045-16.176,3.869-16.905,3.869-17.767l0.25-1.002l0.9-4.188l0.432-2.01
		c0.287-1.146,0-2.438-0.859-3.442c-0.861-1.148-2.152-1.723-3.586-1.723h-30.85c-1.436,0-2.869,0.574-3.729,1.723
		c-0.717,1.005-1.148,2.151-0.861,3.442l0.432,2.01 M22.215,34.032l3.729,17.074"/>
	<path fill="#73D7FB" d="M47.785,37.94c0.604,0,1.141,0.392,1.328,0.964l0,0c0.184,0.572-0.021,1.205-0.508,1.56l0,0l-3.273,2.378
		l1.25,3.849c0.188,0.573-0.02,1.205-0.508,1.56l0,0c-0.242,0.177-0.531,0.265-0.818,0.265l0,0c-0.287,0-0.576-0.088-0.818-0.266
		l0,0l-3.275-2.378l-3.271,2.378c-0.486,0.354-1.152,0.354-1.641,0l0,0c-0.486-0.354-0.691-0.986-0.506-1.56l0,0l1.25-3.849
		l-3.271-2.379c-0.488-0.354-0.693-0.986-0.51-1.56l0,0c0.188-0.572,0.727-0.964,1.328-0.964l0,0h4.045l1.252-3.848
		c0.188-0.573,0.725-0.963,1.326-0.963l0,0c0.604,0,1.141,0.391,1.326,0.963l0,0l1.25,3.849L47.785,37.94L47.785,37.94z"/>
</g>
</svg>
