<?xml version="1.0"?>
<svg xmlns="http://www.w3.org/2000/svg" xmlns:xlink="http://www.w3.org/1999/xlink" xmlns:svgjs="http://svgjs.com/svgjs" version="1.1" width="512" height="512" x="0" y="0" viewBox="0 0 192 192" style="enable-background:new 0 0 512 512" xml:space="preserve" class=""><g><path xmlns="http://www.w3.org/2000/svg" d="m16 176v-136h-16v144a8 8 0 0 0 8 8h184v-16z" fill="#005596" data-original="#000000" style=""/><path xmlns="http://www.w3.org/2000/svg" d="m72 112a8 8 0 0 0 -8-8h-24a8 8 0 0 0 -8 8v56h40z" fill="#005596" data-original="#000000" style=""/><path xmlns="http://www.w3.org/2000/svg" d="m128 80a8 8 0 0 0 -8-8h-24a8 8 0 0 0 -8 8v88h40z" fill="#005596" data-original="#000000" style=""/><path xmlns="http://www.w3.org/2000/svg" d="m184 48a8 8 0 0 0 -8-8h-24a8 8 0 0 0 -8 8v120h40z" fill="#005596" data-original="#000000" style=""/></g></svg>
