<?xml version="1.0"?>
<svg xmlns="http://www.w3.org/2000/svg" xmlns:xlink="http://www.w3.org/1999/xlink" xmlns:svgjs="http://svgjs.com/svgjs" version="1.1" width="512" height="512" x="0" y="0" viewBox="0 0 448 448" style="enable-background:new 0 0 512 512" xml:space="preserve" class=""><g>
<g xmlns="http://www.w3.org/2000/svg">
	<g>
		<path d="M0,151.219v296h48v-256c0-4.418,3.578-8,8-8h336c4.422,0,8,3.582,8,8v256h48v-296H0z M32,255.219H16v-48h16V255.219z     M432,255.219h-16v-48h16V255.219z" fill="#005596" data-original="#000000" style="" class=""/>
	</g>
</g>
<g xmlns="http://www.w3.org/2000/svg">
	<g>
		<polygon points="224,0.781 18.805,135.219 429.195,135.219   " fill="#005596" data-original="#000000" style="" class=""/>
	</g>
</g>
<g xmlns="http://www.w3.org/2000/svg">
	<g>
		<path d="M312,391.219h24c0-4.41-3.586-8-8-8H120c-4.414,0-8,3.59-8,8h24v16h-24v8h40h144h40v-8h-24V391.219z" fill="#005596" data-original="#000000" style="" class=""/>
	</g>
</g>
<g xmlns="http://www.w3.org/2000/svg">
	<g>
		<path d="M304,423.219v16c0,4.41,3.586,8,8,8h16c4.414,0,8-3.59,8-8v-16H304z" fill="#005596" data-original="#000000" style="" class=""/>
	</g>
</g>
<g xmlns="http://www.w3.org/2000/svg">
	<g>
		<path d="M112,423.219v16c0,4.41,3.586,8,8,8h16c4.414,0,8-3.59,8-8v-16H112z" fill="#005596" data-original="#000000" style="" class=""/>
	</g>
</g>
<g xmlns="http://www.w3.org/2000/svg">
	<g>
		<path d="M272,303.219h-96c-26.469,0-48,21.531-48,48v16h192v-16C320,324.75,298.469,303.219,272,303.219z" fill="#005596" data-original="#000000" style="" class=""/>
	</g>
</g>
<g xmlns="http://www.w3.org/2000/svg">
	<g>
		<path d="M344,359.219h-8c-4.418,0-8,3.582-8,8c0,4.418,3.582,8,8,8h8c4.418,0,8-3.582,8-8C352,362.8,348.418,359.219,344,359.219z    " fill="#005596" data-original="#000000" style="" class=""/>
	</g>
</g>
<g xmlns="http://www.w3.org/2000/svg">
	<g>
		<path d="M112,359.219h-8c-4.418,0-8,3.582-8,8c0,4.418,3.582,8,8,8h8c4.418,0,8-3.582,8-8C120,362.8,116.418,359.219,112,359.219z    " fill="#005596" data-original="#000000" style="" class=""/>
	</g>
</g>
<g xmlns="http://www.w3.org/2000/svg">
	<g>
		<path d="M368,215.219H80c-4.422,0-8,3.582-8,8v32c0,4.418,3.578,8,8,8h288c4.422,0,8-3.582,8-8v-32    C376,218.801,372.422,215.219,368,215.219z" fill="#005596" data-original="#000000" style="" class=""/>
	</g>
</g>
<g xmlns="http://www.w3.org/2000/svg">
</g>
<g xmlns="http://www.w3.org/2000/svg">
</g>
<g xmlns="http://www.w3.org/2000/svg">
</g>
<g xmlns="http://www.w3.org/2000/svg">
</g>
<g xmlns="http://www.w3.org/2000/svg">
</g>
<g xmlns="http://www.w3.org/2000/svg">
</g>
<g xmlns="http://www.w3.org/2000/svg">
</g>
<g xmlns="http://www.w3.org/2000/svg">
</g>
<g xmlns="http://www.w3.org/2000/svg">
</g>
<g xmlns="http://www.w3.org/2000/svg">
</g>
<g xmlns="http://www.w3.org/2000/svg">
</g>
<g xmlns="http://www.w3.org/2000/svg">
</g>
<g xmlns="http://www.w3.org/2000/svg">
</g>
<g xmlns="http://www.w3.org/2000/svg">
</g>
<g xmlns="http://www.w3.org/2000/svg">
</g>
</g></svg>
